<svg xmlns="http://www.w3.org/2000/svg" width="161" height="24" viewBox="0 0 161 24" fill="none"><path d="M9.86608 8.43962C9.86608 8.43962 8.53372 8.30689 8.53372 9.49435V14.7684H17.3333V16.3512C17.3333 16.3512 17.3594 17.1418 16.5333 17.1418H8.53336V23.9987H18.1329C18.1329 23.9987 23.9454 23.1017 23.999 17.1418V8.43962H9.86608ZM23.7318 0H6.39993C0.132736 1.47655 0 6.61925 0 6.61925V23.9994H6.66719V8.17594C6.66719 6.8307 7.99955 6.5942 7.99955 6.5942H23.7328V0H23.7318ZM46.6131 19.0255C46.1558 19.3307 45.8177 19.5547 45.5787 19.6975C44.724 20.2266 43.909 20.6345 43.1537 20.9604C42.06 21.4083 41.0851 21.6323 40.211 21.6323C37.2089 21.6323 34.723 20.7157 32.7141 18.862C30.7052 17.0084 29.7131 14.6875 29.7131 11.8772C29.7131 9.16877 30.6079 6.82604 32.4168 4.82928C34.2257 2.83396 36.4132 1.85579 38.9981 1.85579C40.0725 1.85579 41.2242 2.03862 42.4174 2.42716C43.9684 2.91517 45.2206 3.64897 46.2149 4.60531L44.4847 6.51943C43.7498 5.80745 42.7956 5.27722 41.6815 4.95164C40.8471 4.70692 39.933 4.586 38.918 4.586C37.1091 4.586 35.5774 5.3173 34.3649 6.76415C33.1524 8.23032 32.5363 9.96161 32.5363 11.9981C32.5363 14.0152 33.2311 15.6642 34.6232 16.9887C36.0153 18.3121 37.7842 18.984 39.9316 18.984C40.8264 18.984 41.7419 18.6982 42.6754 18.1497C43.4514 17.559 43.8489 17.2732 43.8686 17.2528V13.0782H38.0629L38.8972 10.4714H46.6124V19.0255H46.6131ZM64.1496 13.9333C64.1496 15.9494 63.434 17.7011 62.0022 19.1672C60.5703 20.6334 58.8011 21.3876 56.6938 21.3876C54.7454 21.3876 53.0355 20.6538 51.5636 19.2084C50.0917 17.7626 49.3762 16.0109 49.3762 13.9537C49.3762 11.9172 50.0731 10.1652 51.4642 8.65787C52.8549 7.15055 54.5658 6.41782 56.5736 6.41782C58.8008 6.41782 60.6101 7.13087 62.0215 8.57665C63.4344 9.98236 64.1496 11.7745 64.1496 13.9333ZM61.4251 13.9744C61.4251 12.6099 60.9678 11.4489 60.0537 10.5119C59.1396 9.5541 58.0058 9.08577 56.6538 9.08577C55.3819 9.08577 54.3074 9.57485 53.4126 10.553C52.5178 11.5301 52.0803 12.65 52.0803 13.9129C52.0803 15.2374 52.5375 16.3572 53.4323 17.2946C54.3271 18.2316 55.4412 18.7196 56.7922 18.7196C58.0459 18.7196 59.1188 18.251 60.0344 17.3139C60.9682 16.3769 61.4265 15.2567 61.4265 13.9748L61.4251 13.9744ZM81.4474 13.9333C81.4474 15.9494 80.7318 17.7011 79.3 19.1672C77.8682 20.6334 76.099 21.3876 73.9917 21.3876C72.0432 21.3876 70.3334 20.6538 68.8615 19.2084C67.3907 17.7626 66.674 16.0109 66.674 13.9537C66.674 11.9172 67.371 10.1652 68.762 8.65787C70.1541 7.15055 71.8636 6.41782 73.8715 6.41782C76.0986 6.41782 77.9079 7.13087 79.3193 8.57665C80.7318 9.98236 81.4474 11.7745 81.4474 13.9333ZM78.7229 13.9744C78.7229 12.6099 78.2657 11.4489 77.3516 10.5119C76.4374 9.5541 75.3036 9.08577 73.9516 9.08577C72.6797 9.08577 71.6053 9.57485 70.7105 10.553C69.8157 11.5301 69.3781 12.65 69.3781 13.9129C69.3781 15.2374 69.8354 16.3572 70.7312 17.2946C71.625 18.2316 72.7391 18.7196 74.0911 18.7196C75.3437 18.7196 76.4167 18.251 77.3322 17.3139C78.266 16.3769 78.7243 15.2567 78.7243 13.9748L78.7229 13.9744ZM97.4537 20.9797L94.9485 21.3672V18.9433L94.4115 19.5536C93.9385 19.9969 93.4022 20.3676 92.8208 20.6542C91.9671 21.0481 91.0376 21.2495 90.0974 21.2448C88.1489 21.2448 86.4781 20.5318 85.1261 19.0849C83.774 17.6381 83.0985 15.9286 83.0985 13.9333C83.0985 11.8761 83.774 10.1047 85.1064 8.63747C86.4388 7.17022 88.0684 6.43749 90.0169 6.43749C91.131 6.43749 92.1049 6.62032 92.9195 6.98704C93.4966 7.25216 93.994 7.59849 94.4108 8.0271C94.5503 8.20993 94.6895 8.41351 94.829 8.59633V2.24219L97.4919 1.85472L97.4537 20.9797ZM95.1074 14.1161C95.1074 12.6911 94.6297 11.489 93.6558 10.5115C92.6823 9.5126 91.5872 9.02459 90.336 9.02459C88.9439 9.02459 87.8309 9.49328 86.9761 10.4303C86.1797 11.3251 85.7626 12.4256 85.7626 13.709C85.7626 15.1548 86.1797 16.3558 87.0151 17.2928C87.8495 18.2299 88.9042 18.6985 90.1968 18.6985C91.4687 18.6985 92.5829 18.271 93.5771 17.3959C94.5907 16.4989 95.1084 15.3995 95.1084 14.1161H95.1074ZM111.51 4.89118H104.055V9.96196H109.84V12.5687H104.055V20.9604L101.152 21.388V2.26294H110.933L111.51 4.89118ZM117.495 3.40319L115.706 5.66362L113.996 3.40319L115.805 1.16314L117.495 3.40319ZM116.958 20.9797L114.294 21.3465V7.19169L116.958 6.7849V20.9808V20.9797ZM128.987 6.64215L127.735 9.53335C127.57 9.5083 127.404 9.49506 127.238 9.49327C126.979 9.49327 126.721 9.51367 126.462 9.55374C126.202 9.59381 125.925 9.69649 125.627 9.8396C125.071 10.0843 124.593 10.6131 124.176 11.4074C123.714 12.309 123.475 13.3075 123.479 14.3204V20.9601L120.816 21.3876V7.19169L123.281 6.74375V9.69685C123.599 9.18702 123.937 8.67862 124.255 8.14946C124.712 7.61924 125.249 7.23284 125.845 7.0078C126.163 6.88651 126.74 6.78383 127.615 6.70261C128.45 6.64215 128.928 6.601 128.987 6.64215ZM148.829 20.9797L146.165 21.3672V11.6521C146.165 10.7552 145.966 10.1036 145.569 9.69685C145.171 9.28898 144.574 9.08541 143.798 9.08541C142.865 9.08541 142.148 9.47288 141.672 10.2464C141.353 10.7756 141.175 11.3458 141.175 11.9161V20.9593L138.511 21.4484V11.7129C138.511 10.8582 138.312 10.2056 137.934 9.75875C137.536 9.30974 137.02 9.08577 136.343 9.08577H136.085C135.15 9.08577 134.473 9.47324 134.056 10.2675C133.738 10.8582 133.58 11.6113 133.58 12.5279V20.9597L130.816 21.4488V7.19205L133.3 6.7645V8.57701C133.579 8.14839 133.857 7.80206 134.117 7.55877C134.832 6.88686 135.668 6.55986 136.601 6.55986C137.655 6.55986 138.43 6.72336 138.967 7.06969C139.424 7.35555 139.861 7.92442 140.299 8.73944C141.213 7.29366 142.506 6.56021 144.217 6.56021C145.846 6.56021 147.06 7.07005 147.854 8.10868C148.511 8.96341 148.829 10.2264 148.829 11.8764V20.9797ZM161 16.6828C161 17.9855 160.543 19.0656 159.629 19.901C158.715 20.7558 157.56 21.164 156.168 21.164C155.115 21.164 154.18 20.9193 153.325 20.4302C152.47 19.9422 151.835 19.3912 151.417 18.74L153.286 17.0703C153.425 17.2739 153.545 17.4359 153.663 17.5583C154.36 18.2713 155.195 18.6384 156.169 18.6384C156.845 18.6384 157.382 18.4556 157.759 18.1093C158.157 17.7629 158.336 17.2739 158.336 16.642C158.336 15.9301 157.879 15.441 156.965 15.1759C155.155 14.6263 154.18 14.3211 154.042 14.2592C153.206 13.8317 152.61 13.3838 152.231 12.8743C151.814 12.2836 151.596 11.5097 151.596 10.5122C151.596 9.28934 152.053 8.27218 152.948 7.45752C153.843 6.64286 154.916 6.25539 156.148 6.25539C157.084 6.25539 157.958 6.45896 158.754 6.88722C159.549 7.31477 160.125 7.7627 160.463 8.29293L158.873 10.0231C158.634 9.78415 158.375 9.5659 158.098 9.37163C157.461 8.92369 156.845 8.69972 156.269 8.69972C155.711 8.69972 155.254 8.82208 154.897 9.06537C154.478 9.37163 154.26 9.81957 154.26 10.4106C154.26 10.9809 154.459 11.4085 154.877 11.6736C155.235 11.8975 155.99 12.1423 157.184 12.4059C158.376 12.6918 159.291 13.1809 159.947 13.8732C160.682 14.6052 161 15.5218 161 16.6828Z" fill="#3A7AF3"></path></svg>