<svg xmlns="http://www.w3.org/2000/svg" width="197" height="90" viewBox="0 0 197 90" fill="none"><g clip-path="url(#clip0_84_55)"><path d="M5.04866 89.6871V77.6422H0.365852V74.7879H12.9216V77.6305H8.19493V89.6871H5.04866Z" fill="#F2F2F2"></path><path d="M27.4442 89.6871H17.4083V74.7879H27.2979V77.5253H20.5663V80.6571H26.6745V83.374H20.5663V86.941H27.4442V89.6871Z" fill="#F2F2F2"></path><path d="M31.609 82.2229C31.609 77.87 34.8899 74.4899 39.0868 74.4899C43.0145 74.4899 46.0876 77.1017 46.6086 80.917H43.275C42.9209 78.7815 41.2585 77.3091 39.1395 77.3091C36.5845 77.3091 34.8606 79.3219 34.8606 82.2229C34.8606 85.1239 36.5845 87.1893 39.1395 87.1893C41.2585 87.1893 42.9004 85.6965 43.275 83.5609H46.6203C46.0993 87.4172 43.0262 90.0085 39.0985 90.0085C34.9016 89.9997 31.609 86.5992 31.609 82.2229Z" fill="#F2F2F2"></path><path d="M51.4173 89.6871V74.7879H54.5752V80.6571H61.0375V74.7879H64.1955V89.6871H61.0375V83.3857H54.5752V89.6871H51.4173Z" fill="#F2F2F2"></path><path d="M72.7533 79.2986V89.6871H69.8675V74.7879H73.2743L79.7775 84.6594V74.7879H82.6838V89.6871H79.5902L72.7533 79.2986Z" fill="#F2F2F2"></path><path d="M87.4837 82.2229C87.4837 77.7648 90.8085 74.4899 95.0932 74.4899C99.378 74.4899 102.758 77.7648 102.758 82.2229C102.758 86.681 99.4307 89.9997 95.1196 89.9997C90.8085 89.9997 87.4837 86.681 87.4837 82.2229ZM99.5127 82.2229C99.5127 79.4855 97.8502 77.3091 95.1079 77.3091C92.3655 77.3091 90.7177 79.4855 90.7177 82.2229C90.7177 84.9603 92.3801 87.1893 95.1079 87.1893C97.8356 87.1893 99.5097 84.9603 99.5097 82.2229H99.5127Z" fill="#F2F2F2"></path><path d="M107.552 89.6871V74.7879H110.71V86.8358H117.193V89.6871H107.552Z" fill="#F2F2F2"></path><path d="M119.83 82.2229C119.83 77.7648 123.155 74.4899 127.454 74.4899C131.754 74.4899 135.123 77.7648 135.123 82.2229C135.123 86.681 131.777 89.9997 127.454 89.9997C123.132 89.9997 119.83 86.681 119.83 82.2229ZM131.859 82.2229C131.859 79.4855 130.197 77.3091 127.469 77.3091C124.741 77.3091 123.079 79.4855 123.079 82.2229C123.079 84.9603 124.741 87.1893 127.469 87.1893C130.197 87.1893 131.859 84.9603 131.859 82.2229Z" fill="#F2F2F2"></path><path d="M139.021 82.1826C139.021 77.7858 142.24 74.4963 146.59 74.4963C150.371 74.4963 153.072 76.7341 154.047 79.9711H150.33C149.87 78.4548 148.501 77.3155 146.505 77.3155C144.096 77.3155 142.267 79.0683 142.267 82.2819C142.267 85.142 143.868 87.3418 146.859 87.3418C149.063 87.3418 150.453 86.033 150.868 84.1896H146.549V81.6801H154.24C154.427 86.5326 151.477 90.0149 146.718 90.0149C142.393 90.0003 139.021 86.7867 139.021 82.1826Z" fill="#F2F2F2"></path><path d="M165.016 89.6871H161.85V84.0897L156.582 74.7879H159.988L163.541 81.2151L167.156 74.7879H170.337L165.019 84.078L165.016 89.6871Z" fill="#F2F2F2"></path><path d="M63.218 21.4461H42.9736L50.3724 1.16859C50.4932 0.827635 50.7167 0.532307 51.0122 0.323099C51.3077 0.113891 51.6608 0.00104325 52.0231 2.688e-05H71.4421C71.5366 -0.000877568 71.6299 0.0210548 71.714 0.0639507C71.7982 0.106847 71.8706 0.169431 71.9253 0.24636C71.9799 0.323288 72.0151 0.412274 72.0278 0.505718C72.0405 0.599161 72.0304 0.694285 71.9982 0.782966L64.8862 20.2922C64.762 20.6332 64.5348 20.9274 64.236 21.1341C63.9372 21.3408 63.5815 21.4498 63.218 21.4461Z" fill="white"></path><path d="M196.971 0.785898L174.218 63.1873C174.097 63.5283 173.874 63.8236 173.578 64.0328C173.283 64.242 172.93 64.3548 172.567 64.3559H118.062C117.968 64.3558 117.876 64.3332 117.793 64.2899C117.709 64.2466 117.637 64.1839 117.584 64.1071C117.53 64.0303 117.495 63.9417 117.482 63.8487C117.47 63.7557 117.48 63.6611 117.512 63.5729L124.624 44.0608C124.745 43.7198 124.968 43.4245 125.264 43.2153C125.56 43.0061 125.913 42.8933 126.275 42.8922H159.716C159.836 42.8924 159.953 42.8558 160.052 42.7873C160.15 42.7189 160.225 42.6219 160.266 42.5095L175.345 1.1686C175.466 0.827646 175.689 0.532319 175.985 0.32311C176.28 0.113902 176.633 0.00105448 176.996 3.81169e-05H196.415C196.509 -0.00104296 196.603 0.0208869 196.688 0.0639409C196.772 0.106995 196.845 0.169884 196.899 0.247197C196.954 0.324511 196.989 0.413934 197.002 0.507773C197.014 0.601612 197.003 0.697058 196.971 0.785898Z" fill="white"></path><path d="M42.9706 21.4461H21.4853V0.584283C21.4853 0.429321 21.4236 0.280707 21.3139 0.171132C21.2041 0.0615582 21.0552 0 20.9 0L0.585351 0C0.430107 0 0.28122 0.0615582 0.171445 0.171132C0.0616708 0.280707 0 0.429321 0 0.584283L0 63.7569C0 63.9119 0.0616708 64.0605 0.171445 64.1701C0.28122 64.2797 0.430107 64.3412 0.585351 64.3412H20.9C21.0552 64.3412 21.2041 64.2797 21.3139 64.1701C21.4236 64.0605 21.4853 63.9119 21.4853 63.7569V42.8951H33.9211C34.2817 42.8952 34.6335 42.7845 34.9288 42.578C35.2241 42.3716 35.4486 42.0794 35.5718 41.7412L42.9706 21.4461Z" fill="white"></path><path d="M145.697 21.4461H126.275C125.913 21.4445 125.561 21.3314 125.266 21.1222C124.971 20.913 124.748 20.618 124.627 20.2775L118.323 3.00613C118.24 2.7825 118.09 2.58962 117.894 2.45342C117.698 2.31722 117.464 2.24421 117.225 2.24421C116.986 2.24421 116.753 2.31722 116.557 2.45342C116.361 2.58962 116.211 2.7825 116.128 3.00613L94.1772 63.1873C94.0564 63.5282 93.833 63.8235 93.5374 64.0328C93.2419 64.242 92.8888 64.3548 92.5265 64.3558H52.0231C51.6608 64.3548 51.3077 64.242 51.0122 64.0328C50.7166 63.8235 50.4932 63.5282 50.3724 63.1873L43.2575 43.6781C43.2249 43.5897 43.2143 43.4948 43.2264 43.4014C43.2385 43.308 43.2731 43.2189 43.3271 43.1418C43.3811 43.0646 43.4531 43.0016 43.5367 42.9581C43.6204 42.9147 43.7134 42.8921 43.8077 42.8922H63.218C63.5803 42.8932 63.9334 43.0061 64.2289 43.2153C64.5244 43.4245 64.7479 43.7198 64.8686 44.0608L71.1846 61.3497C71.2683 61.5724 71.4181 61.7642 71.6139 61.8997C71.8098 62.0351 72.0424 62.1077 72.2807 62.1077C72.5189 62.1077 72.7515 62.0351 72.9474 61.8997C73.1432 61.7642 73.293 61.5724 73.3767 61.3497L95.3274 1.16857C95.4477 0.829009 95.6698 0.53467 95.9636 0.325584C96.2573 0.116499 96.6085 0.00281632 96.9693 0L137.481 0C137.844 0.00101637 138.197 0.113864 138.492 0.323072C138.788 0.532281 139.011 0.827608 139.132 1.16857L146.247 20.6778C146.276 20.7651 146.284 20.8581 146.27 20.9492C146.257 21.0402 146.221 21.1267 146.168 21.2016C146.114 21.2765 146.044 21.3377 145.962 21.3802C145.88 21.4227 145.789 21.4453 145.697 21.4461Z" fill="white"></path></g><defs><clipPath id="clip0_84_55"><rect width="197" height="90" fill="white"></rect></clipPath></defs></svg>