<svg xmlns="http://www.w3.org/2000/svg" width="157" height="24" viewBox="0 0 157 24" fill="none"><path d="M23.072 9.03692L15.7315 7.97042L12.45 1.31892C12.4041 1.24085 12.3386 1.17611 12.26 1.13114C12.1814 1.08616 12.0923 1.0625 12.0018 1.0625C11.9112 1.0625 11.8222 1.08616 11.7436 1.13114C11.6649 1.17611 11.5994 1.24085 11.5535 1.31892L8.27052 7.96892L0.92802 9.03692C0.83569 9.05025 0.74893 9.08914 0.677548 9.1492C0.606166 9.20926 0.553009 9.28809 0.524088 9.37678C0.495166 9.46547 0.491632 9.56048 0.513887 9.65108C0.536141 9.74167 0.583296 9.82423 0.65002 9.88942L5.96302 15.0674L4.70902 22.3784C4.69333 22.4703 4.70364 22.5647 4.73878 22.6511C4.77393 22.7374 4.8325 22.8122 4.9079 22.867C4.9833 22.9218 5.07252 22.9545 5.16548 22.9612C5.25845 22.968 5.35146 22.9487 5.43402 22.9054L12 19.4539L18.566 22.9039C18.6486 22.9472 18.7416 22.9665 18.8346 22.9597C18.9275 22.953 19.0167 22.9203 19.0921 22.8655C19.1675 22.8107 19.2261 22.7359 19.2613 22.6496C19.2964 22.5632 19.3067 22.4688 19.291 22.3769L18.037 15.0674L23.35 9.88942C23.4167 9.82426 23.4639 9.74174 23.4862 9.65119C23.5085 9.56063 23.505 9.46565 23.4761 9.37697C23.4472 9.28829 23.3941 9.20945 23.3228 9.14936C23.2515 9.08928 23.1643 9.05033 23.072 9.03692Z" fill="#FFA51D"></path><g clip-path="url(#clip0_2003_1560)"><path d="M56.2149 9.03692L48.8744 7.97042L45.5929 1.31892C45.547 1.24085 45.4815 1.17611 45.4029 1.13114C45.3242 1.08616 45.2352 1.0625 45.1447 1.0625C45.0541 1.0625 44.9651 1.08616 44.8864 1.13114C44.8078 1.17611 44.7423 1.24085 44.6964 1.31892L41.4134 7.96892L34.0709 9.03692C33.9786 9.05025 33.8918 9.08914 33.8204 9.1492C33.749 9.20926 33.6959 9.28809 33.667 9.37678C33.638 9.46547 33.6345 9.56048 33.6568 9.65108C33.679 9.74167 33.7262 9.82423 33.7929 9.88942L39.1059 15.0674L37.8519 22.3784C37.8362 22.4703 37.8465 22.5647 37.8817 22.6511C37.9168 22.7374 37.9754 22.8122 38.0508 22.867C38.1262 22.9218 38.2154 22.9545 38.3084 22.9612C38.4013 22.968 38.4943 22.9487 38.5769 22.9054L45.1429 19.4539L51.7089 22.9039C51.7915 22.9472 51.8845 22.9665 51.9774 22.9597C52.0704 22.953 52.1596 22.9203 52.235 22.8655C52.3104 22.8107 52.369 22.7359 52.4041 22.6496C52.4393 22.5632 52.4496 22.4688 52.4339 22.3769L51.1799 15.0674L56.4929 9.88942C56.5596 9.82426 56.6068 9.74174 56.6291 9.65119C56.6513 9.56063 56.6478 9.46565 56.619 9.37697C56.5901 9.28829 56.537 9.20945 56.4657 9.14936C56.3944 9.08928 56.3072 9.05033 56.2149 9.03692Z" fill="#FFA51D"></path></g><g clip-path="url(#clip1_2003_1560)"><path d="M89.3577 9.03692L82.0172 7.97042L78.7357 1.31892C78.6898 1.24085 78.6243 1.17611 78.5457 1.13114C78.4671 1.08616 78.3781 1.0625 78.2875 1.0625C78.1969 1.0625 78.1079 1.08616 78.0293 1.13114C77.9506 1.17611 77.8851 1.24085 77.8392 1.31892L74.5562 7.96892L67.2137 9.03692C67.1214 9.05025 67.0346 9.08914 66.9633 9.1492C66.8919 9.20926 66.8387 9.28809 66.8098 9.37678C66.7809 9.46547 66.7773 9.56048 66.7996 9.65108C66.8218 9.74167 66.869 9.82423 66.9357 9.88942L72.2487 15.0674L70.9947 22.3784C70.979 22.4703 70.9893 22.5647 71.0245 22.6511C71.0596 22.7374 71.1182 22.8122 71.1936 22.867C71.269 22.9218 71.3582 22.9545 71.4512 22.9612C71.5442 22.968 71.6372 22.9487 71.7197 22.9054L78.2857 19.4539L84.8517 22.9039C84.9343 22.9472 85.0273 22.9665 85.1203 22.9597C85.2132 22.953 85.3024 22.9203 85.3778 22.8655C85.4532 22.8107 85.5118 22.7359 85.547 22.6496C85.5821 22.5632 85.5924 22.4688 85.5767 22.3769L84.3227 15.0674L89.6357 9.88942C89.7024 9.82426 89.7496 9.74174 89.7719 9.65119C89.7942 9.56063 89.7907 9.46565 89.7618 9.37697C89.7329 9.28829 89.6798 9.20945 89.6085 9.14936C89.5372 9.08928 89.45 9.05033 89.3577 9.03692Z" fill="#FFA51D"></path></g><g clip-path="url(#clip2_2003_1560)"><path d="M122.501 9.03692L115.16 7.97042L111.879 1.31892C111.833 1.24085 111.767 1.17611 111.689 1.13114C111.61 1.08616 111.521 1.0625 111.43 1.0625C111.34 1.0625 111.251 1.08616 111.172 1.13114C111.094 1.17611 111.028 1.24085 110.982 1.31892L107.699 7.96892L100.357 9.03692C100.264 9.05025 100.178 9.08914 100.106 9.1492C100.035 9.20926 99.9816 9.28809 99.9527 9.37678C99.9238 9.46547 99.9202 9.56048 99.9425 9.65108C99.9647 9.74167 100.012 9.82423 100.079 9.88942L105.392 15.0674L104.138 22.3784C104.122 22.4703 104.132 22.5647 104.167 22.6511C104.203 22.7374 104.261 22.8122 104.336 22.867C104.412 22.9218 104.501 22.9545 104.594 22.9612C104.687 22.968 104.78 22.9487 104.863 22.9054L111.429 19.4539L117.995 22.9039C118.077 22.9472 118.17 22.9665 118.263 22.9597C118.356 22.953 118.445 22.9203 118.521 22.8655C118.596 22.8107 118.655 22.7359 118.69 22.6496C118.725 22.5632 118.735 22.4688 118.72 22.3769L117.466 15.0674L122.779 9.88942C122.845 9.82426 122.892 9.74174 122.915 9.65119C122.937 9.56063 122.934 9.46565 122.905 9.37697C122.876 9.28829 122.823 9.20945 122.751 9.14936C122.68 9.08928 122.593 9.05033 122.501 9.03692Z" fill="#FFA51D"></path></g><g clip-path="url(#clip3_2003_1560)"><path d="M155.643 9.03692L148.303 7.97042L145.021 1.31892C144.976 1.24085 144.91 1.17611 144.831 1.13114C144.753 1.08616 144.664 1.0625 144.573 1.0625C144.483 1.0625 144.394 1.08616 144.315 1.13114C144.236 1.17611 144.171 1.24085 144.125 1.31892L140.842 7.96892L133.499 9.03692C133.407 9.05025 133.32 9.08914 133.249 9.1492C133.178 9.20926 133.124 9.28809 133.095 9.37678C133.067 9.46547 133.063 9.56048 133.085 9.65108C133.108 9.74167 133.155 9.82423 133.221 9.88942L138.534 15.0674L137.28 22.3784C137.265 22.4703 137.275 22.5647 137.31 22.6511C137.345 22.7374 137.404 22.8122 137.479 22.867C137.555 22.9218 137.644 22.9545 137.737 22.9612C137.83 22.968 137.923 22.9487 138.005 22.9054L144.571 19.4539L151.137 22.9039C151.22 22.9472 151.313 22.9665 151.406 22.9597C151.499 22.953 151.588 22.9203 151.664 22.8655C151.739 22.8107 151.798 22.7359 151.833 22.6496C151.868 22.5632 151.878 22.4688 151.862 22.3769L150.608 15.0674L155.921 9.88942C155.988 9.82426 156.035 9.74174 156.058 9.65119C156.08 9.56063 156.076 9.46565 156.048 9.37697C156.019 9.28829 155.966 9.20945 155.894 9.14936C155.823 9.08928 155.736 9.05033 155.643 9.03692Z" fill="#FFA51D"></path></g><defs><clipPath id="clip0_2003_1560"><rect width="24" height="24" fill="white" transform="translate(33.1429)"></rect></clipPath><clipPath id="clip1_2003_1560"><rect width="24" height="24" fill="white" transform="translate(66.2857)"></rect></clipPath><clipPath id="clip2_2003_1560"><rect width="24" height="24" fill="white" transform="translate(99.4286)"></rect></clipPath><clipPath id="clip3_2003_1560"><rect width="24" height="24" fill="white" transform="translate(132.571)"></rect></clipPath></defs></svg>